PathFileType	4	(X/Y/Z)	RBDS013\RBDS013runT25.trc
DataRate	CameraRate	NumFrames	NumMarkers	Units	OrigDataRate	OrigDataStartFrame	OrigNumFrames
150.000000	150.000000	4	33	mm	150.000000	1687	4500
Frame#	Time	L.ASIS			L.Heel.Bottom			L.Heel.Lateral			L.Heel.Top			L.Iliac.Crest			L.MT1			L.MT5			L.PSIS			L.Shank.Bottom.Lateral			L.Shank.Bottom.Medial			L.Shank.Top.Lateral			L.Shank.Top.Medial			L.Thigh.Bottom.Lateral			L.Thigh.Bottom.Medial			L.Thigh.Top.Lateral			L.Thigh.Top.Medial			R.ASIS			R.ASY			R.Heel.Bottom			R.Heel.Lateral			R.Heel.Top			R.Iliac.Crest			R.MT1			R.MT5			R.PSIS			R.Shank.Bottom.Lateral			R.Shank.Bottom.Medial			R.Shank.Top.Lateral			R.Shank.Top.Medial			R.Thigh.Bottom.Lateral			R.Thigh.Bottom.Medial			R.Thigh.Top.Lateral			R.Thigh.Top.Medial			
		X1	Y1	Z1	X2	Y2	Z2	X3	Y3	Z3	X4	Y4	Z4	X5	Y5	Z5	X6	Y6	Z6	X7	Y7	Z7	X8	Y8	Z8	X9	Y9	Z9	X10	Y10	Z10	X11	Y11	Z11	X12	Y12	Z12	X13	Y13	Z13	X14	Y14	Z14	X15	Y15	Z15	X16	Y16	Z16	X17	Y17	Z17	X18	Y18	Z18	X19	Y19	Z19	X20	Y20	Z20	X21	Y21	Z21	X22	Y22	Z22	X23	Y23	Z23	X24	Y24	Z24	X25	Y25	Z25	X26	Y26	Z26	X27	Y27	Z27	X28	Y28	Z28	X29	Y29	Z29	X30	Y30	Z30	X31	Y31	Z31	X32	Y32	Z32	X33	Y33	Z33	

1688	11.24666666666667	2278.074996936326	941.5757974317858	922.6609746625252	2327.81922542749	38.73187458054205	1024.218072190549	2344.96049040024	59.5111033894723	977.7348503790068	2324.000901753439	85.18622714527697	1015.096043451367	2222.414639946057	1018.058344885738	890.1353442807919	2523.699048470591	117.3740543809233	1041.293544888657	2500.080773805287	74.41036372047591	941.8420961650393	2124.260159116606	992.7368357610626	989.2074705390992	2353.230003146058	187.9162008166116	948.1751782317566	2316.080999280277	184.9793558412172	989.6513792617524	2330.02478093853	263.5295574694081	933.4219680941303	2293.737994231075	261.7533157483901	973.8960468701384	2326.894032210127	601.2463012988429	896.0264468536635	2260.837063601548	582.9166966891719	921.3960995065661	2287.277125996497	701.7502382079613	873.9236404123183	2224.687655401092	684.999127585311	897.875070644417	2292.732224526423	944.4844246297096	1154.50758802394	1768.962546953017	271.3878613240126	1117.457562138299	1674.548030410519	430.300528012848	1068.928480550535	1691.856165086821	417.0765406227236	1114.380368290597	1724.777597693154	434.8618639887609	1077.752549290011	2252.154498436208	1017.047787671164	1184.453248565552	1747.969583712033	233.9261658556336	1067.872905258187	1711.844323591862	267.2463991250576	1165.249840251336	2130.400891959589	998.5919236030855	1088.991272182981	1801.731300891169	417.2798904612871	1143.870453434864	1794.673722958513	447.7293716806049	1103.043806832025	1875.167750096246	457.4116594320672	1158.341779794661	1863.868221417726	487.5610870671655	1115.816464391263	2153.831126344078	627.2780299846801	1198.389453420014	2095.904896738509	637.127424080902	1152.921537004207	2161.020386644928	735.8620410265786	1206.439247113879	2107.216107489666	745.938532886244	1163.657606952344	
1689	11.25333333333333	2277.975651588875	937.524304630766	922.0281675893254	2319.673866594249	35.4999923035294	1024.545049548722	2337.310455940246	56.20929611221199	978.245842397293	2316.936921555458	81.98639650532972	1015.780198679049	2221.34603243053	1013.501051713155	889.7725997546769	2516.780981570042	109.4893673709269	1042.386648674329	2492.506943568673	68.15627630043625	942.546531729193	2123.691371015384	986.7213301914996	989.3928824655395	2348.297632067051	182.9000728956285	948.7261990127328	2310.872180519071	180.558901644371	989.9460044272502	2326.459073491613	258.8632690405307	933.8264399063021	2289.982382180053	257.6894803690781	974.1003955723858	2327.441254505437	596.8987331729454	896.4807278529562	2261.295087062798	578.4626073419608	921.4858991318325	2287.792239460774	697.3635738632073	874.2557883143065	2225.077543012943	680.498714370125	897.871359118579	2293.151709246791	939.9359254999619	1154.173725202871	1765.492281515714	282.9059353628169	1117.083118394677	1678.497147903826	446.3732616427972	1069.47754747959	1695.364260282731	432.2287125206684	1114.763296712631	1728.947453562292	448.4903554102826	1077.985447054759	2251.827006699821	1011.983991856722	1184.426923409754	1742.461344121223	246.5953559472532	1067.582461255013	1708.385559477766	281.4691229463002	1165.230227412171	2130.169254171719	991.9022007522334	1089.30215539147	1805.284156363759	426.2129783350478	1144.041609636936	1799.438820524279	457.4705705520703	1103.668530527878	1880.60802486949	462.59878508828	1158.686670637581	1870.59713466692	493.6572653447786	1116.495448053272	2158.528617744278	620.7393796411305	1198.265539899252	2100.914279219375	629.5295236632927	1152.234482627147	2164.026502129669	729.483149602712	1206.024518795854	2110.282400387647	738.5853757737536	1163.00342619224	
1690	11.26	2277.84095825644	933.0321687636848	921.4505882784233	2309.36918168421	32.73850969083656	1024.952685355266	2327.617051670966	53.42728987354006	978.9259719630497	2308.046004172247	79.28135098387529	1016.752908314136	2220.256367572591	1008.682211442928	889.4295661741141	2508.208077794272	100.5879740706757	1043.698032068884	2482.911291379671	61.5860548563452	943.2642821147749	2123.207821884547	980.3512317085638	989.6296993876445	2342.389736225739	177.7592605043691	949.5530410994295	2304.600335423587	176.3068044489565	990.3751678822359	2322.401667815273	254.1429450354408	934.3825847482063	2285.673388981357	253.8541114788736	974.3393442323338	2328.454881595292	592.3710201900972	896.776095832175	2262.268366772358	573.6289805488395	921.4017274009373	2288.488348870966	692.6642674324703	874.4038151220473	2225.691064616283	675.4924322879757	897.6444113114035	2293.555694669421	934.8330500602564	1153.776577504772	1763.414822488174	294.1075545118897	1116.636047448405	1683.820268015549	461.719768402162	1070.227252598362	1700.229926076719	446.6176921785204	1115.35959749518	1734.360731191412	461.435852595068	1078.435556880488	2251.845905758687	1006.277987504081	1184.369294050691	1738.423746189101	259.1071248371558	1067.21259963413	1706.439199870205	295.2070709323161	1165.18544901643	2129.861150306879	984.7585153126057	1089.745001110056	1809.900285815374	434.6054930094964	1144.312473668716	1805.301481831315	466.6123184373769	1104.415550563103	1886.890565371019	467.2103934399851	1159.158506615491	1878.201437803291	499.1161201559372	1117.315131631482	2163.260416045595	613.8746387427428	1198.225227328299	2106.006542276225	621.5682167273025	1151.614582851094	2167.034354453735	722.7683238686806	1205.682427402858	2113.373972767208	730.8526149072753	1162.395787822412	
1691	11.26666666666667	2277.628869233567	928.0904879313924	920.9443644603192	2297.257241667015	30.51265243490766	1025.467373573894	2316.199127929534	51.25080127188681	979.7970189866628	2297.580793486613	77.1250142381748	1018.025654799605	2219.203748920649	1003.529502835021	889.0913607155579	2498.179294907558	91.17609073970196	1045.260723584232	2471.593899113187	55.10395373564625	944.0344626016872	2122.773846024229	973.6729598291741	989.894552410963	2335.714412531434	172.6615339468779	950.6889492657419	2297.447507720527	172.3790773574389	990.9307676516889	2318.020234955518	249.4905104219665	935.1087221991302	2280.949638083582	250.3552208865622	974.589173355989	2329.841570002397	587.7043250075581	896.8819658971763	2263.671585999994	568.477367762317	921.1535317668275	2289.281748363375	687.6947721460405	874.3339889267935	2226.456736034648	670.0438234933224	897.1988097124211	2293.925961940019	929.2030309350204	1153.312517308371	1762.719122231927	304.8710806559868	1116.14130118783	1690.434284607974	476.2015028633515	1071.149108623651	1706.365265084557	460.1216977908505	1116.152008534485	1740.940565433351	473.5792311008544	1079.079126591682	2252.201251760727	999.948004719738	1184.271039024369	1735.871936844886	271.3117497623454	1066.784525476923	1705.983997882386	308.3212125944354	1165.128460979326	2129.45934681036	977.2463346934613	1090.275480074851	1815.509857243788	442.3963559058242	1144.677156129217	1812.195631819025	475.066412214703	1105.254933072288	1893.940179317993	471.2068323509795	1159.734415061852	1886.608504770669	503.8848569639787	1118.24481556603	2168.035885024387	606.7381066713635	1198.28482206233	2111.145794051133	613.2957313024995	1151.136868981393	2170.034908864286	715.7664255092867	1205.43428508332	2116.459099928693	722.7875489267906	1161.883417297248	
